<mxfile host="Electron" agent="Mozilla/5.0 (Macintosh; Intel Mac OS X 10_15_7) AppleWebKit/537.36 (KHTML, like Gecko) draw.io/25.0.2 Chrome/128.0.6613.186 Electron/32.2.5 Safari/537.36" version="25.0.2">
  <diagram name="Server Directory Structure" id="slq-GmolcPxi06INoLlD">
    <mxGraphModel dx="2022" dy="762" grid="1" gridSize="10" guides="1" tooltips="1" connect="1" arrows="1" fold="1" page="1" pageScale="1" pageWidth="850" pageHeight="1100" math="0" shadow="0">
      <root>
        <mxCell id="0" />
        <mxCell id="1" parent="0" />
        <mxCell id="1epN-AGbNZ8dsCqa4cco-1" value="wp" style="rounded=0;whiteSpace=wrap;html=1;fillColor=#60a917;fontColor=#ffffff;strokeColor=#2D7600;" parent="1" vertex="1">
          <mxGeometry x="780" y="755" width="70" height="25" as="geometry" />
        </mxCell>
        <mxCell id="1epN-AGbNZ8dsCqa4cco-4" value="wp-includes" style="rounded=0;whiteSpace=wrap;html=1;fillColor=#60a917;fontColor=#ffffff;strokeColor=#2D7600;" parent="1" vertex="1">
          <mxGeometry x="920" y="815" width="100" height="25" as="geometry" />
        </mxCell>
        <mxCell id="1epN-AGbNZ8dsCqa4cco-5" value="wp-admin" style="rounded=0;whiteSpace=wrap;html=1;fillColor=#60a917;fontColor=#ffffff;strokeColor=#2D7600;" parent="1" vertex="1">
          <mxGeometry x="920" y="755" width="100" height="25" as="geometry" />
        </mxCell>
        <mxCell id="1epN-AGbNZ8dsCqa4cco-9" value="" style="endArrow=classic;html=1;rounded=0;" parent="1" source="1epN-AGbNZ8dsCqa4cco-1" target="1epN-AGbNZ8dsCqa4cco-5" edge="1">
          <mxGeometry width="50" height="50" relative="1" as="geometry">
            <mxPoint x="970" y="955" as="sourcePoint" />
            <mxPoint x="1020" y="905" as="targetPoint" />
          </mxGeometry>
        </mxCell>
        <mxCell id="1epN-AGbNZ8dsCqa4cco-11" value="" style="endArrow=classic;html=1;rounded=0;edgeStyle=elbowEdgeStyle;" parent="1" source="1epN-AGbNZ8dsCqa4cco-1" target="1epN-AGbNZ8dsCqa4cco-4" edge="1">
          <mxGeometry width="50" height="50" relative="1" as="geometry">
            <mxPoint x="970" y="955" as="sourcePoint" />
            <mxPoint x="1020" y="905" as="targetPoint" />
          </mxGeometry>
        </mxCell>
        <mxCell id="1epN-AGbNZ8dsCqa4cco-15" value="src" style="rounded=0;whiteSpace=wrap;html=1;fillColor=#60a917;fontColor=#ffffff;strokeColor=#2D7600;" parent="1" vertex="1">
          <mxGeometry x="780" y="538" width="70" height="25" as="geometry" />
        </mxCell>
        <mxCell id="1epN-AGbNZ8dsCqa4cco-16" value="theme" style="rounded=0;whiteSpace=wrap;html=1;fillColor=#60a917;fontColor=#ffffff;strokeColor=#2D7600;" parent="1" vertex="1">
          <mxGeometry x="920" y="630" width="100" height="25" as="geometry" />
        </mxCell>
        <mxCell id="1epN-AGbNZ8dsCqa4cco-17" value="wp-content" style="rounded=0;whiteSpace=wrap;html=1;fillColor=#60a917;fontColor=#ffffff;strokeColor=#2D7600;" parent="1" vertex="1">
          <mxGeometry x="920" y="692" width="100" height="25" as="geometry" />
        </mxCell>
        <mxCell id="1epN-AGbNZ8dsCqa4cco-18" value="plugin" style="rounded=0;whiteSpace=wrap;html=1;fillColor=#60a917;fontColor=#ffffff;strokeColor=#2D7600;" parent="1" vertex="1">
          <mxGeometry x="920" y="600" width="100" height="25" as="geometry" />
        </mxCell>
        <mxCell id="1epN-AGbNZ8dsCqa4cco-19" value="wp-config.php" style="rounded=0;whiteSpace=wrap;html=1;fillColor=#60a917;fontColor=#ffffff;strokeColor=#2D7600;" parent="1" vertex="1">
          <mxGeometry x="920" y="661" width="100" height="25" as="geometry" />
        </mxCell>
        <mxCell id="1epN-AGbNZ8dsCqa4cco-22" value="" style="endArrow=classic;html=1;rounded=0;" parent="1" source="1epN-AGbNZ8dsCqa4cco-15" target="U5i6wFgs56zIzA2t5Vr8-1" edge="1">
          <mxGeometry width="50" height="50" relative="1" as="geometry">
            <mxPoint x="970" y="740" as="sourcePoint" />
            <mxPoint x="1020" y="690" as="targetPoint" />
          </mxGeometry>
        </mxCell>
        <mxCell id="1epN-AGbNZ8dsCqa4cco-23" value="" style="endArrow=classic;html=1;rounded=0;edgeStyle=elbowEdgeStyle;" parent="1" source="1epN-AGbNZ8dsCqa4cco-15" target="1epN-AGbNZ8dsCqa4cco-16" edge="1">
          <mxGeometry width="50" height="50" relative="1" as="geometry">
            <mxPoint x="970" y="740" as="sourcePoint" />
            <mxPoint x="1020" y="690" as="targetPoint" />
          </mxGeometry>
        </mxCell>
        <mxCell id="1epN-AGbNZ8dsCqa4cco-24" value="" style="endArrow=classic;html=1;rounded=0;edgeStyle=elbowEdgeStyle;" parent="1" source="1epN-AGbNZ8dsCqa4cco-15" target="1epN-AGbNZ8dsCqa4cco-17" edge="1">
          <mxGeometry width="50" height="50" relative="1" as="geometry">
            <mxPoint x="970" y="740" as="sourcePoint" />
            <mxPoint x="1020" y="690" as="targetPoint" />
          </mxGeometry>
        </mxCell>
        <mxCell id="1epN-AGbNZ8dsCqa4cco-25" value="" style="endArrow=classic;html=1;rounded=0;edgeStyle=elbowEdgeStyle;" parent="1" source="1epN-AGbNZ8dsCqa4cco-15" target="1epN-AGbNZ8dsCqa4cco-19" edge="1">
          <mxGeometry width="50" height="50" relative="1" as="geometry">
            <mxPoint x="857" y="575" as="sourcePoint" />
            <mxPoint x="948" y="610" as="targetPoint" />
          </mxGeometry>
        </mxCell>
        <mxCell id="1epN-AGbNZ8dsCqa4cco-34" value="vendor" style="rounded=0;whiteSpace=wrap;html=1;fillColor=#60a917;fontColor=#ffffff;strokeColor=#2D7600;" parent="1" vertex="1">
          <mxGeometry x="780" y="990" width="70" height="25" as="geometry" />
        </mxCell>
        <mxCell id="1epN-AGbNZ8dsCqa4cco-39" value="uploads" style="rounded=0;whiteSpace=wrap;html=1;fillColor=#1ba1e2;fontColor=#ffffff;strokeColor=#006EAF;" parent="1" vertex="1">
          <mxGeometry x="517" y="1190" width="70" height="25" as="geometry" />
        </mxCell>
        <mxCell id="1epN-AGbNZ8dsCqa4cco-45" value="environment-root&lt;br&gt;(e.g. wedding.sytesbook.com)" style="rounded=0;whiteSpace=wrap;html=1;fillColor=#1ba1e2;fontColor=#ffffff;strokeColor=#006EAF;" parent="1" vertex="1">
          <mxGeometry x="250" y="32.5" width="190" height="40" as="geometry" />
        </mxCell>
        <mxCell id="1epN-AGbNZ8dsCqa4cco-47" value="" style="endArrow=classic;html=1;rounded=0;edgeStyle=elbowEdgeStyle;" parent="1" source="oDOgSIpIKI1p7b8SBWgH-16" target="1epN-AGbNZ8dsCqa4cco-1" edge="1">
          <mxGeometry width="50" height="50" relative="1" as="geometry">
            <mxPoint x="710" y="552.5" as="sourcePoint" />
            <mxPoint x="930" y="723" as="targetPoint" />
          </mxGeometry>
        </mxCell>
        <mxCell id="1epN-AGbNZ8dsCqa4cco-48" value="" style="endArrow=classic;html=1;rounded=0;edgeStyle=elbowEdgeStyle;" parent="1" source="1epN-AGbNZ8dsCqa4cco-45" target="1epN-AGbNZ8dsCqa4cco-39" edge="1">
          <mxGeometry width="50" height="50" relative="1" as="geometry">
            <mxPoint x="710" y="554.75" as="sourcePoint" />
            <mxPoint x="790" y="765.25" as="targetPoint" />
          </mxGeometry>
        </mxCell>
        <mxCell id="1epN-AGbNZ8dsCqa4cco-49" value="" style="endArrow=classic;html=1;rounded=0;edgeStyle=elbowEdgeStyle;" parent="1" source="oDOgSIpIKI1p7b8SBWgH-16" target="1epN-AGbNZ8dsCqa4cco-34" edge="1">
          <mxGeometry width="50" height="50" relative="1" as="geometry">
            <mxPoint x="710" y="554.75" as="sourcePoint" />
            <mxPoint x="790" y="955.25" as="targetPoint" />
          </mxGeometry>
        </mxCell>
        <mxCell id="1epN-AGbNZ8dsCqa4cco-50" value="main-domain-public" style="rounded=0;whiteSpace=wrap;html=1;fillColor=#1ba1e2;fontColor=#ffffff;strokeColor=#006EAF;" parent="1" vertex="1">
          <mxGeometry x="517" y="32.5" width="143" height="40" as="geometry" />
        </mxCell>
        <mxCell id="1epN-AGbNZ8dsCqa4cco-53" value="wp-admin" style="rounded=0;whiteSpace=wrap;html=1;fillColor=#e3c800;fontColor=#000000;strokeColor=#B09500;" parent="1" vertex="1">
          <mxGeometry x="777" y="70.5" width="100" height="25" as="geometry" />
        </mxCell>
        <mxCell id="1epN-AGbNZ8dsCqa4cco-54" value="index.php" style="rounded=0;whiteSpace=wrap;html=1;fillColor=#e3c800;fontColor=#000000;strokeColor=#B09500;" parent="1" vertex="1">
          <mxGeometry x="777" y="196" width="100" height="25" as="geometry" />
        </mxCell>
        <mxCell id="1epN-AGbNZ8dsCqa4cco-57" value="" style="endArrow=classic;html=1;rounded=0;edgeStyle=elbowEdgeStyle;" parent="1" source="1epN-AGbNZ8dsCqa4cco-50" target="1epN-AGbNZ8dsCqa4cco-53" edge="1">
          <mxGeometry width="50" height="50" relative="1" as="geometry">
            <mxPoint x="707" y="53" as="sourcePoint" />
            <mxPoint x="877" y="190" as="targetPoint" />
          </mxGeometry>
        </mxCell>
        <mxCell id="1epN-AGbNZ8dsCqa4cco-60" value="" style="endArrow=classic;html=1;rounded=0;edgeStyle=elbowEdgeStyle;" parent="1" source="1epN-AGbNZ8dsCqa4cco-50" target="1epN-AGbNZ8dsCqa4cco-54" edge="1">
          <mxGeometry width="50" height="50" relative="1" as="geometry">
            <mxPoint x="707" y="53" as="sourcePoint" />
            <mxPoint x="805" y="110" as="targetPoint" />
          </mxGeometry>
        </mxCell>
        <mxCell id="1epN-AGbNZ8dsCqa4cco-63" value=".env" style="rounded=0;whiteSpace=wrap;html=1;fillColor=#fa6800;strokeColor=#C73500;fontColor=#000000;" parent="1" vertex="1">
          <mxGeometry x="780" y="1050" width="80" height="25" as="geometry" />
        </mxCell>
        <mxCell id="1epN-AGbNZ8dsCqa4cco-64" value="" style="endArrow=classic;html=1;rounded=0;edgeStyle=elbowEdgeStyle;" parent="1" source="oDOgSIpIKI1p7b8SBWgH-16" target="1epN-AGbNZ8dsCqa4cco-63" edge="1">
          <mxGeometry width="50" height="50" relative="1" as="geometry">
            <mxPoint x="710" y="554.75" as="sourcePoint" />
            <mxPoint x="790" y="935.25" as="targetPoint" />
          </mxGeometry>
        </mxCell>
        <mxCell id="1epN-AGbNZ8dsCqa4cco-65" value="www" style="rounded=0;whiteSpace=wrap;html=1;fillColor=#1ba1e2;fontColor=#ffffff;strokeColor=#006EAF;" parent="1" vertex="1">
          <mxGeometry x="110" y="40" width="70" height="25" as="geometry" />
        </mxCell>
        <mxCell id="1epN-AGbNZ8dsCqa4cco-66" value="" style="endArrow=classic;html=1;rounded=0;" parent="1" source="1epN-AGbNZ8dsCqa4cco-65" target="1epN-AGbNZ8dsCqa4cco-45" edge="1">
          <mxGeometry width="50" height="50" relative="1" as="geometry">
            <mxPoint x="450" y="63" as="sourcePoint" />
            <mxPoint x="520" y="63" as="targetPoint" />
          </mxGeometry>
        </mxCell>
        <mxCell id="1epN-AGbNZ8dsCqa4cco-70" value="uploads" style="rounded=0;whiteSpace=wrap;html=1;fillColor=#e3c800;fontColor=#000000;strokeColor=#B09500;" parent="1" vertex="1">
          <mxGeometry x="777" y="40" width="100" height="25" as="geometry" />
        </mxCell>
        <mxCell id="1epN-AGbNZ8dsCqa4cco-71" value="" style="endArrow=classic;html=1;rounded=0;" parent="1" source="1epN-AGbNZ8dsCqa4cco-50" target="1epN-AGbNZ8dsCqa4cco-70" edge="1">
          <mxGeometry width="50" height="50" relative="1" as="geometry">
            <mxPoint x="717" y="63" as="sourcePoint" />
            <mxPoint x="787" y="93" as="targetPoint" />
          </mxGeometry>
        </mxCell>
        <mxCell id="1epN-AGbNZ8dsCqa4cco-92" value="" style="group" parent="1" vertex="1" connectable="0">
          <mxGeometry x="10" y="130" width="180" height="186.25" as="geometry" />
        </mxCell>
        <mxCell id="1epN-AGbNZ8dsCqa4cco-91" value="Legend" style="rounded=0;whiteSpace=wrap;html=1;verticalAlign=top;" parent="1epN-AGbNZ8dsCqa4cco-92" vertex="1">
          <mxGeometry width="180" height="160" as="geometry" />
        </mxCell>
        <mxCell id="1epN-AGbNZ8dsCqa4cco-68" value="uploaded via FTP" style="rounded=0;whiteSpace=wrap;html=1;fillColor=#60a917;fontColor=#ffffff;strokeColor=#2D7600;" parent="1epN-AGbNZ8dsCqa4cco-92" vertex="1">
          <mxGeometry x="30" y="62.5" width="120" height="20" as="geometry" />
        </mxCell>
        <mxCell id="1epN-AGbNZ8dsCqa4cco-69" value="existing folder" style="rounded=0;whiteSpace=wrap;html=1;fillColor=#1ba1e2;fontColor=#ffffff;strokeColor=#006EAF;" parent="1epN-AGbNZ8dsCqa4cco-92" vertex="1">
          <mxGeometry x="30" y="35" width="120" height="20" as="geometry" />
        </mxCell>
        <mxCell id="1epN-AGbNZ8dsCqa4cco-73" value="symbolic link" style="rounded=0;whiteSpace=wrap;html=1;fillColor=#e3c800;fontColor=#000000;strokeColor=#B09500;" parent="1epN-AGbNZ8dsCqa4cco-92" vertex="1">
          <mxGeometry x="30" y="119.25" width="120" height="20" as="geometry" />
        </mxCell>
        <mxCell id="1epN-AGbNZ8dsCqa4cco-74" value="generated by deploy" style="rounded=0;whiteSpace=wrap;html=1;fillColor=#fa6800;fontColor=#000000;strokeColor=#C73500;" parent="1epN-AGbNZ8dsCqa4cco-92" vertex="1">
          <mxGeometry x="30" y="90.5" width="120" height="20" as="geometry" />
        </mxCell>
        <mxCell id="1epN-AGbNZ8dsCqa4cco-94" value="logs" style="rounded=0;whiteSpace=wrap;html=1;fillColor=#1ba1e2;fontColor=#ffffff;strokeColor=#006EAF;" parent="1" vertex="1">
          <mxGeometry x="517" y="1150" width="70" height="25" as="geometry" />
        </mxCell>
        <mxCell id="1epN-AGbNZ8dsCqa4cco-95" value="" style="endArrow=classic;html=1;rounded=0;edgeStyle=elbowEdgeStyle;" parent="1" source="1epN-AGbNZ8dsCqa4cco-45" target="1epN-AGbNZ8dsCqa4cco-94" edge="1">
          <mxGeometry width="50" height="50" relative="1" as="geometry">
            <mxPoint x="710" y="554.75" as="sourcePoint" />
            <mxPoint x="790" y="965.25" as="targetPoint" />
          </mxGeometry>
        </mxCell>
        <mxCell id="m4DeNMkGD3FWATtHilkw-31" value="version.json" style="rounded=0;whiteSpace=wrap;html=1;fillColor=#fa6800;strokeColor=#C73500;fontColor=#000000;" parent="1" vertex="1">
          <mxGeometry x="780" y="1080" width="80" height="25" as="geometry" />
        </mxCell>
        <mxCell id="m4DeNMkGD3FWATtHilkw-32" value="" style="endArrow=classic;html=1;rounded=0;edgeStyle=elbowEdgeStyle;" parent="1" source="oDOgSIpIKI1p7b8SBWgH-16" target="m4DeNMkGD3FWATtHilkw-31" edge="1">
          <mxGeometry width="50" height="50" relative="1" as="geometry">
            <mxPoint x="710" y="554.75" as="sourcePoint" />
            <mxPoint x="790" y="1045.25" as="targetPoint" />
          </mxGeometry>
        </mxCell>
        <mxCell id="m4DeNMkGD3FWATtHilkw-33" value="wp-content" style="rounded=0;whiteSpace=wrap;html=1;fillColor=#e3c800;fontColor=#000000;strokeColor=#B09500;" parent="1" vertex="1">
          <mxGeometry x="920" y="785" width="100" height="25" as="geometry" />
        </mxCell>
        <mxCell id="m4DeNMkGD3FWATtHilkw-34" value="wp-config.php" style="rounded=0;whiteSpace=wrap;html=1;fillColor=#e3c800;fontColor=#000000;strokeColor=#B09500;" parent="1" vertex="1">
          <mxGeometry x="920" y="845" width="100" height="25" as="geometry" />
        </mxCell>
        <mxCell id="m4DeNMkGD3FWATtHilkw-35" value="index.php" style="rounded=0;whiteSpace=wrap;html=1;fillColor=#60a917;fontColor=#ffffff;strokeColor=#2D7600;" parent="1" vertex="1">
          <mxGeometry x="920" y="935" width="100" height="25" as="geometry" />
        </mxCell>
        <mxCell id="m4DeNMkGD3FWATtHilkw-81" value="wp-login.php" style="rounded=0;whiteSpace=wrap;html=1;fillColor=#e3c800;fontColor=#000000;strokeColor=#B09500;" parent="1" vertex="1">
          <mxGeometry x="777" y="228" width="100" height="25" as="geometry" />
        </mxCell>
        <mxCell id="m4DeNMkGD3FWATtHilkw-82" value="" style="endArrow=classic;html=1;rounded=0;edgeStyle=elbowEdgeStyle;" parent="1" source="1epN-AGbNZ8dsCqa4cco-50" target="m4DeNMkGD3FWATtHilkw-81" edge="1">
          <mxGeometry width="50" height="50" relative="1" as="geometry">
            <mxPoint x="717" y="63" as="sourcePoint" />
            <mxPoint x="787" y="95" as="targetPoint" />
          </mxGeometry>
        </mxCell>
        <mxCell id="m4DeNMkGD3FWATtHilkw-85" value="wp-login.php" style="rounded=0;whiteSpace=wrap;html=1;fillColor=#60a917;fontColor=#ffffff;strokeColor=#2D7600;" parent="1" vertex="1">
          <mxGeometry x="920" y="905" width="100" height="25" as="geometry" />
        </mxCell>
        <mxCell id="m4DeNMkGD3FWATtHilkw-86" value="" style="endArrow=classic;html=1;rounded=0;edgeStyle=elbowEdgeStyle;" parent="1" source="1epN-AGbNZ8dsCqa4cco-1" target="m4DeNMkGD3FWATtHilkw-34" edge="1">
          <mxGeometry width="50" height="50" relative="1" as="geometry">
            <mxPoint x="860" y="778" as="sourcePoint" />
            <mxPoint x="930" y="838" as="targetPoint" />
          </mxGeometry>
        </mxCell>
        <mxCell id="m4DeNMkGD3FWATtHilkw-87" value="" style="endArrow=classic;html=1;rounded=0;edgeStyle=elbowEdgeStyle;" parent="1" source="1epN-AGbNZ8dsCqa4cco-1" target="m4DeNMkGD3FWATtHilkw-85" edge="1">
          <mxGeometry width="50" height="50" relative="1" as="geometry">
            <mxPoint x="860" y="778" as="sourcePoint" />
            <mxPoint x="930" y="868" as="targetPoint" />
          </mxGeometry>
        </mxCell>
        <mxCell id="m4DeNMkGD3FWATtHilkw-88" value="" style="endArrow=classic;html=1;rounded=0;edgeStyle=elbowEdgeStyle;" parent="1" source="1epN-AGbNZ8dsCqa4cco-1" target="m4DeNMkGD3FWATtHilkw-35" edge="1">
          <mxGeometry width="50" height="50" relative="1" as="geometry">
            <mxPoint x="860" y="778" as="sourcePoint" />
            <mxPoint x="930" y="898" as="targetPoint" />
          </mxGeometry>
        </mxCell>
        <mxCell id="m4DeNMkGD3FWATtHilkw-89" value=".htaccess" style="rounded=0;whiteSpace=wrap;html=1;fillColor=#60a917;fontColor=#ffffff;strokeColor=#2D7600;" parent="1" vertex="1">
          <mxGeometry x="920" y="965" width="100" height="25" as="geometry" />
        </mxCell>
        <mxCell id="m4DeNMkGD3FWATtHilkw-92" value=".htaccess" style="rounded=0;whiteSpace=wrap;html=1;fillColor=#e3c800;fontColor=#000000;strokeColor=#B09500;" parent="1" vertex="1">
          <mxGeometry x="777" y="165" width="100" height="25" as="geometry" />
        </mxCell>
        <mxCell id="m4DeNMkGD3FWATtHilkw-93" value="" style="endArrow=classic;html=1;rounded=0;edgeStyle=elbowEdgeStyle;" parent="1" source="1epN-AGbNZ8dsCqa4cco-50" target="m4DeNMkGD3FWATtHilkw-92" edge="1">
          <mxGeometry width="50" height="50" relative="1" as="geometry">
            <mxPoint x="717" y="62.5" as="sourcePoint" />
            <mxPoint x="787" y="157.5" as="targetPoint" />
          </mxGeometry>
        </mxCell>
        <mxCell id="m4DeNMkGD3FWATtHilkw-94" value="" style="endArrow=classic;html=1;rounded=0;edgeStyle=elbowEdgeStyle;" parent="1" source="1epN-AGbNZ8dsCqa4cco-1" target="m4DeNMkGD3FWATtHilkw-33" edge="1">
          <mxGeometry width="50" height="50" relative="1" as="geometry">
            <mxPoint x="860" y="778" as="sourcePoint" />
            <mxPoint x="930" y="838" as="targetPoint" />
          </mxGeometry>
        </mxCell>
        <mxCell id="m4DeNMkGD3FWATtHilkw-95" value="" style="endArrow=classic;html=1;rounded=0;edgeStyle=elbowEdgeStyle;" parent="1" source="1epN-AGbNZ8dsCqa4cco-1" target="m4DeNMkGD3FWATtHilkw-89" edge="1">
          <mxGeometry width="50" height="50" relative="1" as="geometry">
            <mxPoint x="870" y="788" as="sourcePoint" />
            <mxPoint x="940" y="848" as="targetPoint" />
          </mxGeometry>
        </mxCell>
        <mxCell id="m4DeNMkGD3FWATtHilkw-100" value="wp-content" style="rounded=0;whiteSpace=wrap;html=1;fillColor=#e3c800;fontColor=#000000;strokeColor=#B09500;" parent="1" vertex="1">
          <mxGeometry x="777" y="103" width="100" height="25" as="geometry" />
        </mxCell>
        <mxCell id="m4DeNMkGD3FWATtHilkw-101" value="wp-includes" style="rounded=0;whiteSpace=wrap;html=1;fillColor=#e3c800;fontColor=#000000;strokeColor=#B09500;" parent="1" vertex="1">
          <mxGeometry x="777" y="134" width="100" height="25" as="geometry" />
        </mxCell>
        <mxCell id="m4DeNMkGD3FWATtHilkw-102" value="" style="endArrow=classic;html=1;rounded=0;edgeStyle=elbowEdgeStyle;" parent="1" source="1epN-AGbNZ8dsCqa4cco-50" target="m4DeNMkGD3FWATtHilkw-101" edge="1">
          <mxGeometry width="50" height="50" relative="1" as="geometry">
            <mxPoint x="717" y="62.5" as="sourcePoint" />
            <mxPoint x="787" y="156.5" as="targetPoint" />
          </mxGeometry>
        </mxCell>
        <mxCell id="m4DeNMkGD3FWATtHilkw-103" value="" style="endArrow=classic;html=1;rounded=0;edgeStyle=elbowEdgeStyle;" parent="1" source="1epN-AGbNZ8dsCqa4cco-50" target="m4DeNMkGD3FWATtHilkw-100" edge="1">
          <mxGeometry width="50" height="50" relative="1" as="geometry">
            <mxPoint x="717" y="62.5" as="sourcePoint" />
            <mxPoint x="787" y="126.5" as="targetPoint" />
          </mxGeometry>
        </mxCell>
        <mxCell id="kz5Ws5nKcz8iKgrXOu3A-1" value="uploads" style="rounded=0;whiteSpace=wrap;html=1;fillColor=#e3c800;fontColor=#000000;strokeColor=#B09500;" parent="1" vertex="1">
          <mxGeometry x="920" y="875" width="100" height="25" as="geometry" />
        </mxCell>
        <mxCell id="kz5Ws5nKcz8iKgrXOu3A-2" value="" style="endArrow=classic;html=1;rounded=0;edgeStyle=elbowEdgeStyle;" parent="1" source="1epN-AGbNZ8dsCqa4cco-1" target="kz5Ws5nKcz8iKgrXOu3A-1" edge="1">
          <mxGeometry width="50" height="50" relative="1" as="geometry">
            <mxPoint x="860" y="778" as="sourcePoint" />
            <mxPoint x="930" y="838" as="targetPoint" />
          </mxGeometry>
        </mxCell>
        <mxCell id="U5i6wFgs56zIzA2t5Vr8-1" value="config" style="rounded=0;whiteSpace=wrap;html=1;fillColor=#60a917;fontColor=#ffffff;strokeColor=#2D7600;" parent="1" vertex="1">
          <mxGeometry x="920" y="538" width="100" height="25" as="geometry" />
        </mxCell>
        <mxCell id="U5i6wFgs56zIzA2t5Vr8-2" value="" style="endArrow=classic;html=1;rounded=0;edgeStyle=elbowEdgeStyle;" parent="1" source="1epN-AGbNZ8dsCqa4cco-15" target="1epN-AGbNZ8dsCqa4cco-18" edge="1">
          <mxGeometry width="50" height="50" relative="1" as="geometry">
            <mxPoint x="860" y="563" as="sourcePoint" />
            <mxPoint x="930" y="622" as="targetPoint" />
          </mxGeometry>
        </mxCell>
        <mxCell id="ZAPsuBGCq7X4y0J8VPCF-1" value="var" style="rounded=0;whiteSpace=wrap;html=1;fillColor=#1ba1e2;fontColor=#ffffff;strokeColor=#006EAF;" parent="1" vertex="1">
          <mxGeometry x="-30" y="40" width="70" height="25" as="geometry" />
        </mxCell>
        <mxCell id="ZAPsuBGCq7X4y0J8VPCF-2" value="" style="endArrow=classic;html=1;rounded=0;" parent="1" source="ZAPsuBGCq7X4y0J8VPCF-1" target="1epN-AGbNZ8dsCqa4cco-65" edge="1">
          <mxGeometry width="50" height="50" relative="1" as="geometry">
            <mxPoint x="190" y="63" as="sourcePoint" />
            <mxPoint x="260" y="63" as="targetPoint" />
          </mxGeometry>
        </mxCell>
        <mxCell id="ZAPsuBGCq7X4y0J8VPCF-3" value="" style="endArrow=classic;html=1;rounded=0;" parent="1" source="1epN-AGbNZ8dsCqa4cco-45" target="1epN-AGbNZ8dsCqa4cco-50" edge="1">
          <mxGeometry width="50" height="50" relative="1" as="geometry">
            <mxPoint x="50" y="63" as="sourcePoint" />
            <mxPoint x="120" y="63" as="targetPoint" />
          </mxGeometry>
        </mxCell>
        <mxCell id="ZAPsuBGCq7X4y0J8VPCF-4" value="model-domains-public" style="rounded=0;whiteSpace=wrap;html=1;fillColor=#1ba1e2;fontColor=#ffffff;strokeColor=#006EAF;" parent="1" vertex="1">
          <mxGeometry x="517" y="317.5" width="143" height="40" as="geometry" />
        </mxCell>
        <mxCell id="oDOgSIpIKI1p7b8SBWgH-2" value="index.php" style="rounded=0;whiteSpace=wrap;html=1;fillColor=#e3c800;fontColor=#000000;strokeColor=#B09500;" parent="1" vertex="1">
          <mxGeometry x="777" y="450.5" width="100" height="25" as="geometry" />
        </mxCell>
        <mxCell id="oDOgSIpIKI1p7b8SBWgH-4" value="" style="endArrow=classic;html=1;rounded=0;edgeStyle=elbowEdgeStyle;" parent="1" source="ZAPsuBGCq7X4y0J8VPCF-4" target="oDOgSIpIKI1p7b8SBWgH-2" edge="1">
          <mxGeometry width="50" height="50" relative="1" as="geometry">
            <mxPoint x="660" y="335.5" as="sourcePoint" />
            <mxPoint x="805" y="392.5" as="targetPoint" />
          </mxGeometry>
        </mxCell>
        <mxCell id="oDOgSIpIKI1p7b8SBWgH-5" value="uploads" style="rounded=0;whiteSpace=wrap;html=1;fillColor=#e3c800;fontColor=#000000;strokeColor=#B09500;" parent="1" vertex="1">
          <mxGeometry x="777" y="325" width="100" height="25" as="geometry" />
        </mxCell>
        <mxCell id="oDOgSIpIKI1p7b8SBWgH-6" value="" style="endArrow=classic;html=1;rounded=0;" parent="1" source="ZAPsuBGCq7X4y0J8VPCF-4" target="oDOgSIpIKI1p7b8SBWgH-5" edge="1">
          <mxGeometry width="50" height="50" relative="1" as="geometry">
            <mxPoint x="660" y="335.5" as="sourcePoint" />
            <mxPoint x="787" y="375.5" as="targetPoint" />
          </mxGeometry>
        </mxCell>
        <mxCell id="oDOgSIpIKI1p7b8SBWgH-9" value=".htaccess" style="rounded=0;whiteSpace=wrap;html=1;fillColor=#e3c800;fontColor=#000000;strokeColor=#B09500;" parent="1" vertex="1">
          <mxGeometry x="777" y="419.5" width="100" height="25" as="geometry" />
        </mxCell>
        <mxCell id="oDOgSIpIKI1p7b8SBWgH-10" value="" style="endArrow=classic;html=1;rounded=0;edgeStyle=elbowEdgeStyle;" parent="1" source="ZAPsuBGCq7X4y0J8VPCF-4" target="oDOgSIpIKI1p7b8SBWgH-9" edge="1">
          <mxGeometry width="50" height="50" relative="1" as="geometry">
            <mxPoint x="660" y="335.5" as="sourcePoint" />
            <mxPoint x="787" y="440" as="targetPoint" />
          </mxGeometry>
        </mxCell>
        <mxCell id="oDOgSIpIKI1p7b8SBWgH-11" value="wp-content" style="rounded=0;whiteSpace=wrap;html=1;fillColor=#e3c800;fontColor=#000000;strokeColor=#B09500;" parent="1" vertex="1">
          <mxGeometry x="777" y="388" width="100" height="25" as="geometry" />
        </mxCell>
        <mxCell id="oDOgSIpIKI1p7b8SBWgH-12" value="wp-includes" style="rounded=0;whiteSpace=wrap;html=1;fillColor=#e3c800;fontColor=#000000;strokeColor=#B09500;" parent="1" vertex="1">
          <mxGeometry x="777" y="356.5" width="100" height="25" as="geometry" />
        </mxCell>
        <mxCell id="oDOgSIpIKI1p7b8SBWgH-13" value="" style="endArrow=classic;html=1;rounded=0;edgeStyle=elbowEdgeStyle;" parent="1" source="ZAPsuBGCq7X4y0J8VPCF-4" target="oDOgSIpIKI1p7b8SBWgH-12" edge="1">
          <mxGeometry width="50" height="50" relative="1" as="geometry">
            <mxPoint x="660" y="335.5" as="sourcePoint" />
            <mxPoint x="787" y="439" as="targetPoint" />
          </mxGeometry>
        </mxCell>
        <mxCell id="oDOgSIpIKI1p7b8SBWgH-14" value="" style="endArrow=classic;html=1;rounded=0;edgeStyle=elbowEdgeStyle;" parent="1" source="ZAPsuBGCq7X4y0J8VPCF-4" target="oDOgSIpIKI1p7b8SBWgH-11" edge="1">
          <mxGeometry width="50" height="50" relative="1" as="geometry">
            <mxPoint x="660" y="335.5" as="sourcePoint" />
            <mxPoint x="787" y="409" as="targetPoint" />
          </mxGeometry>
        </mxCell>
        <mxCell id="oDOgSIpIKI1p7b8SBWgH-15" value="" style="endArrow=classic;html=1;rounded=0;edgeStyle=elbowEdgeStyle;" parent="1" source="1epN-AGbNZ8dsCqa4cco-45" target="ZAPsuBGCq7X4y0J8VPCF-4" edge="1">
          <mxGeometry width="50" height="50" relative="1" as="geometry">
            <mxPoint x="670" y="347" as="sourcePoint" />
            <mxPoint x="787" y="380" as="targetPoint" />
          </mxGeometry>
        </mxCell>
        <mxCell id="oDOgSIpIKI1p7b8SBWgH-16" value="deployment" style="rounded=0;whiteSpace=wrap;html=1;fillColor=#1ba1e2;fontColor=#ffffff;strokeColor=#006EAF;" parent="1" vertex="1">
          <mxGeometry x="517" y="530" width="113" height="40" as="geometry" />
        </mxCell>
        <mxCell id="Gh029Heroo2qkGur_L6y-1" value="" style="endArrow=classic;html=1;rounded=0;edgeStyle=elbowEdgeStyle;" parent="1" source="1epN-AGbNZ8dsCqa4cco-45" target="oDOgSIpIKI1p7b8SBWgH-16" edge="1">
          <mxGeometry width="50" height="50" relative="1" as="geometry">
            <mxPoint x="450" y="63" as="sourcePoint" />
            <mxPoint x="527" y="347" as="targetPoint" />
          </mxGeometry>
        </mxCell>
        <mxCell id="vn1Rp80AyFCJHxyu6jbO-1" value="" style="endArrow=classic;html=1;rounded=0;" parent="1" source="oDOgSIpIKI1p7b8SBWgH-16" target="1epN-AGbNZ8dsCqa4cco-15" edge="1">
          <mxGeometry width="50" height="50" relative="1" as="geometry">
            <mxPoint x="670" y="348" as="sourcePoint" />
            <mxPoint x="787" y="348" as="targetPoint" />
          </mxGeometry>
        </mxCell>
        <mxCell id="vn1Rp80AyFCJHxyu6jbO-2" value="" style="endArrow=classic;html=1;rounded=0;fillColor=#f8cecc;strokeColor=#FF0000;" parent="1" source="1epN-AGbNZ8dsCqa4cco-70" target="1epN-AGbNZ8dsCqa4cco-39" edge="1">
          <mxGeometry width="50" height="50" relative="1" as="geometry">
            <mxPoint x="930" y="500" as="sourcePoint" />
            <mxPoint x="980" y="450" as="targetPoint" />
            <Array as="points">
              <mxPoint x="1160" y="53" />
              <mxPoint x="1160" y="1203" />
            </Array>
          </mxGeometry>
        </mxCell>
        <mxCell id="8rMjjpTovViYjlwAPltU-1" value="migrations" style="rounded=0;whiteSpace=wrap;html=1;fillColor=#60a917;fontColor=#ffffff;strokeColor=#2D7600;" parent="1" vertex="1">
          <mxGeometry x="920" y="569" width="100" height="25" as="geometry" />
        </mxCell>
        <mxCell id="8rMjjpTovViYjlwAPltU-3" value="logs" style="rounded=0;whiteSpace=wrap;html=1;fillColor=#e3c800;fontColor=#000000;strokeColor=#B09500;" parent="1" vertex="1">
          <mxGeometry x="780" y="1020" width="80" height="25" as="geometry" />
        </mxCell>
        <mxCell id="8rMjjpTovViYjlwAPltU-4" value="" style="endArrow=classic;html=1;rounded=0;edgeStyle=elbowEdgeStyle;" parent="1" source="oDOgSIpIKI1p7b8SBWgH-16" target="8rMjjpTovViYjlwAPltU-3" edge="1">
          <mxGeometry width="50" height="50" relative="1" as="geometry">
            <mxPoint x="640" y="560" as="sourcePoint" />
            <mxPoint x="790" y="1013" as="targetPoint" />
          </mxGeometry>
        </mxCell>
        <mxCell id="8rMjjpTovViYjlwAPltU-5" value="" style="endArrow=classic;html=1;rounded=0;fillColor=#f8cecc;strokeColor=#FF0000;" parent="1" source="8rMjjpTovViYjlwAPltU-3" target="1epN-AGbNZ8dsCqa4cco-94" edge="1">
          <mxGeometry width="50" height="50" relative="1" as="geometry">
            <mxPoint x="887" y="63" as="sourcePoint" />
            <mxPoint x="597" y="1213" as="targetPoint" />
            <Array as="points">
              <mxPoint x="940" y="1038" />
              <mxPoint x="940" y="1140" />
            </Array>
          </mxGeometry>
        </mxCell>
        <mxCell id="8rMjjpTovViYjlwAPltU-6" value="" style="endArrow=classic;html=1;rounded=0;fillColor=#f8cecc;strokeColor=#FF0000;" parent="1" source="kz5Ws5nKcz8iKgrXOu3A-1" target="1epN-AGbNZ8dsCqa4cco-39" edge="1">
          <mxGeometry width="50" height="50" relative="1" as="geometry">
            <mxPoint x="870" y="1048" as="sourcePoint" />
            <mxPoint x="597" y="1173" as="targetPoint" />
            <Array as="points">
              <mxPoint x="1120" y="888" />
              <mxPoint x="1120" y="1160" />
            </Array>
          </mxGeometry>
        </mxCell>
        <mxCell id="8rMjjpTovViYjlwAPltU-7" value="" style="endArrow=classic;html=1;rounded=0;fillColor=#f8cecc;strokeColor=#FF0000;" parent="1" source="m4DeNMkGD3FWATtHilkw-33" target="1epN-AGbNZ8dsCqa4cco-17" edge="1">
          <mxGeometry width="50" height="50" relative="1" as="geometry">
            <mxPoint x="870" y="1048" as="sourcePoint" />
            <mxPoint x="597" y="1173" as="targetPoint" />
            <Array as="points">
              <mxPoint x="1050" y="798" />
              <mxPoint x="1050" y="720" />
            </Array>
          </mxGeometry>
        </mxCell>
        <mxCell id="8rMjjpTovViYjlwAPltU-8" value="" style="endArrow=classic;html=1;rounded=0;fillColor=#f8cecc;strokeColor=#FF0000;" parent="1" source="m4DeNMkGD3FWATtHilkw-34" target="1epN-AGbNZ8dsCqa4cco-19" edge="1">
          <mxGeometry width="50" height="50" relative="1" as="geometry">
            <mxPoint x="1030" y="808" as="sourcePoint" />
            <mxPoint x="1030" y="718" as="targetPoint" />
            <Array as="points">
              <mxPoint x="1060" y="858" />
              <mxPoint x="1060" y="674" />
            </Array>
          </mxGeometry>
        </mxCell>
        <mxCell id="8rMjjpTovViYjlwAPltU-9" value="" style="endArrow=classic;html=1;rounded=0;fillColor=#f8cecc;strokeColor=#FF0000;" parent="1" source="oDOgSIpIKI1p7b8SBWgH-11" target="1epN-AGbNZ8dsCqa4cco-17" edge="1">
          <mxGeometry width="50" height="50" relative="1" as="geometry">
            <mxPoint x="1493" y="519" as="sourcePoint" />
            <mxPoint x="1220" y="644" as="targetPoint" />
            <Array as="points">
              <mxPoint x="1050" y="400" />
              <mxPoint x="1050" y="710" />
            </Array>
          </mxGeometry>
        </mxCell>
        <mxCell id="8rMjjpTovViYjlwAPltU-10" value="" style="endArrow=classic;html=1;rounded=0;fillColor=#f8cecc;strokeColor=#FF0000;" parent="1" source="oDOgSIpIKI1p7b8SBWgH-12" target="1epN-AGbNZ8dsCqa4cco-4" edge="1">
          <mxGeometry width="50" height="50" relative="1" as="geometry">
            <mxPoint x="887" y="380" as="sourcePoint" />
            <mxPoint x="1030" y="713" as="targetPoint" />
            <Array as="points">
              <mxPoint x="1110" y="370" />
              <mxPoint x="1110" y="810" />
            </Array>
          </mxGeometry>
        </mxCell>
        <mxCell id="8rMjjpTovViYjlwAPltU-11" value="" style="endArrow=classic;html=1;rounded=0;fillColor=#f8cecc;strokeColor=#FF0000;" parent="1" source="oDOgSIpIKI1p7b8SBWgH-9" target="m4DeNMkGD3FWATtHilkw-89" edge="1">
          <mxGeometry width="50" height="50" relative="1" as="geometry">
            <mxPoint x="887" y="410" as="sourcePoint" />
            <mxPoint x="1030" y="712" as="targetPoint" />
            <Array as="points">
              <mxPoint x="1090" y="430" />
              <mxPoint x="1090" y="978" />
            </Array>
          </mxGeometry>
        </mxCell>
        <mxCell id="8rMjjpTovViYjlwAPltU-12" value="" style="endArrow=classic;html=1;rounded=0;fillColor=#f8cecc;strokeColor=#FF0000;" parent="1" source="oDOgSIpIKI1p7b8SBWgH-2" target="m4DeNMkGD3FWATtHilkw-35" edge="1">
          <mxGeometry width="50" height="50" relative="1" as="geometry">
            <mxPoint x="887" y="442" as="sourcePoint" />
            <mxPoint x="1030" y="988" as="targetPoint" />
            <Array as="points">
              <mxPoint x="1070" y="460" />
              <mxPoint x="1070" y="948" />
            </Array>
          </mxGeometry>
        </mxCell>
        <mxCell id="8rMjjpTovViYjlwAPltU-13" value="" style="endArrow=classic;html=1;rounded=0;fillColor=#f8cecc;strokeColor=#FF0000;" parent="1" source="oDOgSIpIKI1p7b8SBWgH-5" target="1epN-AGbNZ8dsCqa4cco-39" edge="1">
          <mxGeometry width="50" height="50" relative="1" as="geometry">
            <mxPoint x="887" y="63" as="sourcePoint" />
            <mxPoint x="597" y="1210" as="targetPoint" />
            <Array as="points">
              <mxPoint x="1140" y="338" />
              <mxPoint x="1140" y="1180" />
            </Array>
          </mxGeometry>
        </mxCell>
        <mxCell id="8rMjjpTovViYjlwAPltU-14" value="" style="endArrow=classic;html=1;rounded=0;fillColor=#f8cecc;strokeColor=#FF0000;" parent="1" source="1epN-AGbNZ8dsCqa4cco-53" target="1epN-AGbNZ8dsCqa4cco-5" edge="1">
          <mxGeometry width="50" height="50" relative="1" as="geometry">
            <mxPoint x="887" y="379" as="sourcePoint" />
            <mxPoint x="1030" y="835" as="targetPoint" />
            <Array as="points">
              <mxPoint x="1150" y="83" />
              <mxPoint x="1150" y="770" />
            </Array>
          </mxGeometry>
        </mxCell>
        <mxCell id="8rMjjpTovViYjlwAPltU-15" value="" style="endArrow=classic;html=1;rounded=0;fillColor=#f8cecc;strokeColor=#FF0000;" parent="1" source="m4DeNMkGD3FWATtHilkw-100" target="1epN-AGbNZ8dsCqa4cco-17" edge="1">
          <mxGeometry width="50" height="50" relative="1" as="geometry">
            <mxPoint x="887" y="410" as="sourcePoint" />
            <mxPoint x="1030" y="712" as="targetPoint" />
            <Array as="points">
              <mxPoint x="1040" y="120" />
              <mxPoint x="1040" y="700" />
            </Array>
          </mxGeometry>
        </mxCell>
        <mxCell id="8rMjjpTovViYjlwAPltU-16" value="" style="endArrow=classic;html=1;rounded=0;fillColor=#f8cecc;strokeColor=#FF0000;" parent="1" source="m4DeNMkGD3FWATtHilkw-101" target="1epN-AGbNZ8dsCqa4cco-4" edge="1">
          <mxGeometry width="50" height="50" relative="1" as="geometry">
            <mxPoint x="887" y="127" as="sourcePoint" />
            <mxPoint x="1030" y="711" as="targetPoint" />
            <Array as="points">
              <mxPoint x="1120" y="147" />
              <mxPoint x="1120" y="820" />
            </Array>
          </mxGeometry>
        </mxCell>
        <mxCell id="8rMjjpTovViYjlwAPltU-17" value="" style="endArrow=classic;html=1;rounded=0;fillColor=#f8cecc;strokeColor=#FF0000;" parent="1" source="m4DeNMkGD3FWATtHilkw-92" target="m4DeNMkGD3FWATtHilkw-89" edge="1">
          <mxGeometry width="50" height="50" relative="1" as="geometry">
            <mxPoint x="887" y="157" as="sourcePoint" />
            <mxPoint x="1030" y="835" as="targetPoint" />
            <Array as="points">
              <mxPoint x="1080" y="178" />
              <mxPoint x="1080" y="960" />
            </Array>
          </mxGeometry>
        </mxCell>
        <mxCell id="8rMjjpTovViYjlwAPltU-18" value="" style="endArrow=classic;html=1;rounded=0;fillColor=#f8cecc;strokeColor=#FF0000;" parent="1" edge="1">
          <mxGeometry width="50" height="50" relative="1" as="geometry">
            <mxPoint x="877.0000000000005" y="207.59157509157512" as="sourcePoint" />
            <mxPoint x="1020" y="939.7692307692307" as="targetPoint" />
            <Array as="points">
              <mxPoint x="1100" y="208" />
              <mxPoint x="1100" y="929" />
            </Array>
          </mxGeometry>
        </mxCell>
        <mxCell id="8rMjjpTovViYjlwAPltU-19" value="" style="endArrow=classic;html=1;rounded=0;fillColor=#f8cecc;strokeColor=#FF0000;" parent="1" source="m4DeNMkGD3FWATtHilkw-81" target="m4DeNMkGD3FWATtHilkw-85" edge="1">
          <mxGeometry width="50" height="50" relative="1" as="geometry">
            <mxPoint x="887" y="219" as="sourcePoint" />
            <mxPoint x="1030" y="955" as="targetPoint" />
            <Array as="points">
              <mxPoint x="1130" y="240" />
              <mxPoint x="1130" y="918" />
            </Array>
          </mxGeometry>
        </mxCell>
        <mxCell id="8rMjjpTovViYjlwAPltU-38" value="flags" style="rounded=0;whiteSpace=wrap;html=1;fillColor=#fa6800;strokeColor=#C73500;fontColor=#000000;" parent="1" vertex="1">
          <mxGeometry x="920" y="995" width="100" height="25" as="geometry" />
        </mxCell>
        <mxCell id="8rMjjpTovViYjlwAPltU-39" value="" style="endArrow=classic;html=1;rounded=0;edgeStyle=elbowEdgeStyle;" parent="1" source="1epN-AGbNZ8dsCqa4cco-1" target="8rMjjpTovViYjlwAPltU-38" edge="1">
          <mxGeometry width="50" height="50" relative="1" as="geometry">
            <mxPoint x="860" y="778" as="sourcePoint" />
            <mxPoint x="930" y="988" as="targetPoint" />
          </mxGeometry>
        </mxCell>
      </root>
    </mxGraphModel>
  </diagram>
</mxfile>
